<svg xmlns="http://www.w3.org/2000/svg" viewBox="0 0 36.17 9.12"><title>アセット 2</title><g id="レイヤー_2" data-name="レイヤー 2"><g id="レイヤー_1-2" data-name="レイヤー 1"><path d="M5.54,6.29a3.12,3.12,0,0,1-.77,2.1,2.62,2.62,0,0,1-2,.73,2.43,2.43,0,0,1-2-1A4.16,4.16,0,0,1,0,5.5V4A4.06,4.06,0,0,1,.78,1.32a2.54,2.54,0,0,1,2.11-1,2.48,2.48,0,0,1,1.92.74,3.25,3.25,0,0,1,.73,2.12H4.46A2.6,2.6,0,0,0,4,1.72a1.38,1.38,0,0,0-1.13-.45A1.55,1.55,0,0,0,1.55,2a3.6,3.6,0,0,0-.47,2V5.52a3.79,3.79,0,0,0,.44,2,1.42,1.42,0,0,0,1.27.69A1.53,1.53,0,0,0,4,7.78a2.59,2.59,0,0,0,.46-1.49Z"/><path d="M7.57,1a.67.67,0,0,1-.15.44A.51.51,0,0,1,7,1.59a.53.53,0,0,1-.44-.17A.67.67,0,0,1,6.39,1,.68.68,0,0,1,6.54.53.53.53,0,0,1,7,.35a.52.52,0,0,1,.44.19A.67.67,0,0,1,7.57,1ZM7.49,9h-1V2.66h1Z"/><path d="M9.86,2.66l0,.69a1.83,1.83,0,0,1,1.54-.81c1.12,0,1.69.75,1.7,2.25V9h-1V4.83a1.69,1.69,0,0,0-.25-1.05.89.89,0,0,0-.75-.32,1.06,1.06,0,0,0-.69.26,1.9,1.9,0,0,0-.5.67V9h-1V2.66Z"/><path d="M14.23,5.54a3.31,3.31,0,0,1,.67-2.19,2.36,2.36,0,0,1,3.54,0,3.21,3.21,0,0,1,.69,2.14v.66a3.27,3.27,0,0,1-.67,2.18,2.37,2.37,0,0,1-3.54,0,3.17,3.17,0,0,1-.69-2.11Zm1,.59a2.64,2.64,0,0,0,.39,1.54,1.17,1.17,0,0,0,1,.56q1.38,0,1.41-2V5.54A2.68,2.68,0,0,0,17.71,4a1.21,1.21,0,0,0-1-.57,1.17,1.17,0,0,0-1,.57,2.67,2.67,0,0,0-.39,1.53Z"/><path d="M21,8.12H24V9H19.77V8.2l2.9-4.64H19.79v-.9h4.1v.77Z"/><path d="M28,9a2.46,2.46,0,0,1-.14-.69,1.63,1.63,0,0,1-1.4.81,1.81,1.81,0,0,1-1.35-.49,1.83,1.83,0,0,1-.48-1.36,1.92,1.92,0,0,1,.66-1.53,2.62,2.62,0,0,1,1.79-.58h.77V4.48a1.08,1.08,0,0,0-.26-.81,1.24,1.24,0,0,0-1.52,0,.93.93,0,0,0-.3.71h-1a1.66,1.66,0,0,1,.28-.93,2,2,0,0,1,.78-.7,2.39,2.39,0,0,1,1.08-.25A2,2,0,0,1,28.4,3a1.89,1.89,0,0,1,.52,1.41V7.63a3.78,3.78,0,0,0,.2,1.28V9Zm-1.38-.83A1.37,1.37,0,0,0,27.38,8a1.34,1.34,0,0,0,.51-.52V5.92H27.3a2,2,0,0,0-1.17.33,1.08,1.08,0,0,0-.42.9,1.17,1.17,0,0,0,.21.78A1,1,0,0,0,26.66,8.17Z"/><path d="M31.64,6.1l-.55.63V9h-1V0h1V5.38l2-2.72H34.3l-2,2.65L34.57,9H33.36Z"/><path d="M36.17,1a.72.72,0,0,1-.14.44.55.55,0,0,1-.45.17.54.54,0,0,1-.44-.17A.66.66,0,0,1,35,1a.67.67,0,0,1,.14-.45.54.54,0,0,1,.44-.18A.51.51,0,0,1,36,.54.67.67,0,0,1,36.17,1Zm-.08,8h-1V2.66h1Z"/></g></g></svg>